<svg width="300" height="65" viewBox="0 0 300 65" fill="none" xmlns="http://www.w3.org/2000/svg">
<path d="M54.9895 20.04C54.9895 23.6667 53.7095 26.8027 51.1495 29.448C48.5895 32.0507 44.8562 33.928 39.9495 35.08C42.5948 35.8053 44.6002 37 45.9655 38.664C47.3308 40.2853 48.0135 42.1627 48.0135 44.296C48.0135 47.6667 46.9468 50.5893 44.8135 53.064C42.7228 55.5387 39.6508 57.4587 35.5975 58.824C31.5442 60.1467 26.6588 60.808 20.9415 60.808C18.8082 60.808 17.1015 60.744 15.8215 60.616C15.7788 61.8107 15.2668 62.7067 14.2855 63.304C13.3042 63.9013 12.0455 64.2 10.5095 64.2C8.9735 64.2 7.90683 63.8587 7.3095 63.176C6.75483 62.4933 6.52017 61.4907 6.6055 60.168C6.9895 54.1947 7.73617 47.944 8.8455 41.416C9.95483 34.8453 11.3628 28.5093 13.0695 22.408C13.3682 21.3413 13.9655 20.5947 14.8615 20.168C15.7575 19.7413 16.9308 19.528 18.3815 19.528C20.9842 19.528 22.2855 20.2533 22.2855 21.704C22.2855 22.3013 22.1575 22.984 21.9015 23.752C20.7922 27.08 19.6828 31.6027 18.5735 37.32C17.4642 42.9947 16.6748 48.4133 16.2055 53.576C18.2535 53.7467 19.9175 53.832 21.1975 53.832C27.1708 53.832 31.5442 52.9787 34.3175 51.272C37.1335 49.5227 38.5415 47.304 38.5415 44.616C38.5415 42.7387 37.7308 41.16 36.1095 39.88C34.5308 38.6 31.8642 37.896 28.1095 37.768C27.2562 37.7253 26.6588 37.512 26.3175 37.128C25.9762 36.744 25.8055 36.1253 25.8055 35.272C25.8055 34.0347 26.0615 33.032 26.5735 32.264C27.0855 31.496 28.0242 31.0907 29.3895 31.048C32.4188 30.9627 35.1495 30.5147 37.5815 29.704C40.0562 28.8933 41.9975 27.7627 43.4055 26.312C44.8135 24.8187 45.5175 23.0907 45.5175 21.128C45.5175 18.6533 44.3015 16.712 41.8695 15.304C39.4375 13.8533 35.7042 13.128 30.6695 13.128C26.1042 13.128 21.6882 13.7253 17.4215 14.92C13.1548 16.072 9.52817 17.544 6.5415 19.336C5.17617 20.1467 4.02417 20.552 3.0855 20.552C2.3175 20.552 1.72017 20.296 1.2935 19.784C0.9095 19.2293 0.7175 18.5467 0.7175 17.736C0.7175 16.6693 0.930833 15.752 1.3575 14.984C1.82683 14.216 2.91483 13.3413 4.6215 12.36C8.2055 10.312 12.4082 8.712 17.2295 7.56C22.0508 6.408 26.9788 5.832 32.0135 5.832C39.7362 5.832 45.4962 7.13333 49.2935 9.736C53.0908 12.3387 54.9895 15.7733 54.9895 20.04ZM60.7565 61.32C58.1112 61.32 55.9992 60.36 54.4205 58.44C52.8418 56.52 52.0525 54.0027 52.0525 50.888C52.0525 47.4747 52.8418 44.2533 54.4205 41.224C55.9992 38.152 58.0898 35.6987 60.6925 33.864C63.3378 31.9867 66.1325 31.048 69.0765 31.048C70.0152 31.048 70.6338 31.24 70.9325 31.624C71.2738 31.9653 71.5512 32.6053 71.7645 33.544C72.6605 33.3733 73.5992 33.288 74.5805 33.288C76.6712 33.288 77.7165 34.0347 77.7165 35.528C77.7165 36.424 77.3965 38.5573 76.7565 41.928C75.7752 46.8347 75.2845 50.248 75.2845 52.168C75.2845 52.808 75.4338 53.32 75.7325 53.704C76.0738 54.088 76.5005 54.28 77.0125 54.28C77.8232 54.28 78.8045 53.768 79.9565 52.744C81.1085 51.6773 82.6658 49.9707 84.6285 47.624C85.1405 47.0267 85.7165 46.728 86.3565 46.728C86.9112 46.728 87.3378 46.984 87.6365 47.496C87.9778 48.008 88.1485 48.712 88.1485 49.608C88.1485 51.3147 87.7432 52.6373 86.9325 53.576C85.1832 55.752 83.3272 57.5867 81.3645 59.08C79.4018 60.5733 77.5032 61.32 75.6685 61.32C74.2605 61.32 72.9592 60.8507 71.7645 59.912C70.6125 58.9307 69.7378 57.608 69.1405 55.944C66.9218 59.528 64.1272 61.32 60.7565 61.32ZM63.0605 54.856C63.9992 54.856 64.8952 54.3013 65.7485 53.192C66.6018 52.0827 67.2205 50.6107 67.6045 48.776L69.9725 37C68.1805 37.0427 66.5165 37.7253 64.9805 39.048C63.4872 40.328 62.2925 42.0347 61.3965 44.168C60.5005 46.3013 60.0525 48.5627 60.0525 50.952C60.0525 52.2747 60.3085 53.256 60.8205 53.896C61.3752 54.536 62.1218 54.856 63.0605 54.856ZM95.171 61.32C90.9897 61.32 87.7257 60.1467 85.379 57.8C83.075 55.4107 81.923 52.2747 81.923 48.392C81.923 44.936 82.6057 41.9067 83.971 39.304C85.3363 36.7013 87.107 34.696 89.283 33.288C91.459 31.88 93.7417 31.176 96.131 31.176C98.4777 31.176 100.291 31.88 101.571 33.288C102.894 34.6533 103.555 36.424 103.555 38.6C103.555 40.392 103.15 41.9067 102.339 43.144C101.571 44.3813 100.547 45 99.267 45C98.4563 45 97.795 44.808 97.283 44.424C96.8137 44.04 96.579 43.5067 96.579 42.824C96.579 42.5253 96.6217 42.184 96.707 41.8C96.7923 41.416 96.8563 41.1387 96.899 40.968C97.1123 40.328 97.219 39.7307 97.219 39.176C97.219 38.6213 97.0697 38.1947 96.771 37.896C96.515 37.5973 96.131 37.448 95.619 37.448C94.6377 37.448 93.7203 37.896 92.867 38.792C92.0137 39.6453 91.331 40.8187 90.819 42.312C90.307 43.8053 90.051 45.448 90.051 47.24C90.051 52.1893 92.2057 54.664 96.515 54.664C98.2643 54.664 100.142 54.088 102.147 52.936C104.195 51.7413 106.2 49.9707 108.163 47.624C108.675 47.0267 109.251 46.728 109.891 46.728C110.446 46.728 110.872 46.984 111.171 47.496C111.512 48.008 111.683 48.712 111.683 49.608C111.683 51.2293 111.278 52.552 110.467 53.576C108.462 56.0507 106.051 57.9707 103.235 59.336C100.462 60.6587 97.7737 61.32 95.171 61.32ZM143.502 46.728C144.056 46.728 144.483 46.984 144.782 47.496C145.123 48.008 145.294 48.712 145.294 49.608C145.294 51.3147 144.888 52.6373 144.078 53.576C142.158 55.9227 140.216 57.8 138.254 59.208C136.291 60.616 133.966 61.32 131.278 61.32C127.992 61.32 125.347 60.3813 123.342 58.504C121.336 56.6267 120.333 54.1307 120.333 51.016C120.333 49.352 121.187 48.1573 122.894 47.432C124.771 46.6213 126.115 45.768 126.926 44.872C127.736 43.9333 128.142 42.8027 128.142 41.48C128.142 40.712 127.971 40.136 127.63 39.752C127.331 39.368 126.947 39.176 126.478 39.176C125.326 39.176 124.046 40.008 122.638 41.672C121.272 43.336 119.992 45.4907 118.798 48.136C117.603 50.7387 116.664 53.4267 115.982 56.2C115.512 58.2053 114.958 59.5707 114.318 60.296C113.72 60.9787 112.76 61.32 111.438 61.32C110.115 61.32 109.134 60.8507 108.494 59.912C107.896 58.9307 107.491 57.4373 107.278 55.432C107.064 53.4267 106.958 50.4827 106.958 46.6C106.958 40.0293 107.619 33.1813 108.942 26.056C110.307 18.9307 112.291 12.9573 114.894 8.136C117.539 3.272 120.696 0.839996 124.366 0.839996C126.328 0.839996 127.907 1.69333 129.102 3.4C130.339 5.064 130.958 7.24 130.958 9.928C130.958 14.2373 129.699 18.7173 127.182 23.368C124.664 27.976 120.568 33.3733 114.894 39.56C114.766 41.7787 114.702 44.0613 114.702 46.408C116.75 41.0747 119.096 37.2133 121.742 34.824C124.387 32.392 126.862 31.176 129.166 31.176C131.299 31.176 133.006 31.9013 134.286 33.352C135.608 34.8027 136.27 36.5947 136.27 38.728C136.27 41.0747 135.672 43.2293 134.478 45.192C133.283 47.1547 131.235 48.904 128.334 50.44C128.504 51.592 129.016 52.5307 129.87 53.256C130.766 53.9387 131.832 54.28 133.07 54.28C134.392 54.28 135.672 53.768 136.91 52.744C138.147 51.72 139.768 50.0133 141.774 47.624C142.286 47.0267 142.862 46.728 143.502 46.728ZM123.022 7.176C122.254 7.176 121.4 8.28533 120.462 10.504C119.523 12.68 118.606 15.6453 117.71 19.4C116.856 23.112 116.152 27.1653 115.598 31.56C118.243 28.4453 120.419 25.0533 122.126 21.384C123.875 17.7147 124.75 14.3867 124.75 11.4C124.75 10.0347 124.6 8.98933 124.302 8.264C124.003 7.53866 123.576 7.176 123.022 7.176ZM151.911 61.32C150.332 61.32 149.201 60.9787 148.519 60.296C147.836 59.5707 147.495 58.2267 147.495 56.264C147.495 54.9413 147.623 53.3413 147.879 51.464C148.135 49.5867 148.583 46.7493 149.223 42.952C149.308 42.44 149.649 40.3707 150.247 36.744C150.844 33.0747 151.377 29.2347 151.847 25.224C152.273 21.8107 152.487 19.2507 152.487 17.544C152.487 15.624 151.783 14.664 150.375 14.664C149.308 14.664 147.964 15.24 146.343 16.392C144.764 17.5013 143.057 19.2933 141.223 21.768C140.625 22.5787 139.964 22.984 139.239 22.984C138.641 22.984 138.108 22.7067 137.639 22.152C137.212 21.5547 136.998 20.8933 136.998 20.168C136.998 19.4427 137.127 18.76 137.383 18.12C137.639 17.4373 138.108 16.6267 138.791 15.688C140.881 12.8293 143.207 10.632 145.767 9.096C148.327 7.51733 151.015 6.728 153.831 6.728C156.177 6.728 157.927 7.45333 159.079 8.904C160.273 10.3547 160.871 12.4667 160.871 15.24C160.871 17.7147 160.529 21.2987 159.847 25.992C161.98 19.6773 164.689 14.8987 167.975 11.656C171.26 8.37066 175.121 6.728 179.559 6.728C183.057 6.728 185.681 7.73066 187.431 9.736C189.223 11.6987 190.119 14.344 190.119 17.672C190.119 19.5493 189.841 21.832 189.287 24.52L185.383 42.824C184.956 44.9573 184.743 46.792 184.743 48.328C184.743 50.12 185.148 51.464 185.959 52.36C186.812 53.256 187.985 53.704 189.479 53.704C190.887 53.704 192.252 53.2347 193.575 52.296C194.94 51.3573 196.54 49.8 198.375 47.624C198.887 47.0267 199.463 46.728 200.103 46.728C200.657 46.728 201.084 46.984 201.382 47.496C201.724 48.008 201.895 48.712 201.895 49.608C201.895 51.272 201.489 52.5947 200.679 53.576C198.46 56.264 196.263 58.2267 194.087 59.464C191.911 60.7013 189.628 61.32 187.239 61.32C183.612 61.32 180.775 60.2533 178.727 58.12C176.679 55.944 175.655 53.0427 175.655 49.416C175.655 48.008 175.761 46.472 175.975 44.808C176.231 43.144 176.636 41.032 177.191 38.472L179.751 26.76C179.836 26.376 179.985 25.6933 180.199 24.712C180.412 23.7307 180.583 22.8133 180.711 21.96C180.839 21.064 180.903 20.1893 180.903 19.336C180.903 17.9707 180.519 16.8827 179.751 16.072C178.983 15.2613 177.895 14.856 176.487 14.856C173.927 14.856 171.367 16.2213 168.807 18.952C166.247 21.6827 163.879 26.0987 161.703 32.2C159.527 38.2587 157.82 46.024 156.583 55.496C156.284 57.672 155.836 59.1867 155.239 60.04C154.684 60.8933 153.575 61.32 151.911 61.32ZM229.337 41.352C229.892 41.352 230.318 41.6293 230.617 42.184C230.916 42.7387 231.065 43.4427 231.065 44.296C231.065 46.344 230.446 47.56 229.209 47.944C226.649 48.84 223.833 49.352 220.761 49.48C219.95 53.064 218.35 55.944 215.961 58.12C213.572 60.2533 210.862 61.32 207.833 61.32C205.273 61.32 203.076 60.7013 201.241 59.464C199.449 58.2267 198.084 56.584 197.145 54.536C196.206 52.488 195.737 50.2693 195.737 47.88C195.737 44.6373 196.356 41.7573 197.593 39.24C198.83 36.68 200.537 34.696 202.713 33.288C204.889 31.8373 207.3 31.112 209.945 31.112C213.188 31.112 215.79 32.2427 217.753 34.504C219.758 36.7227 220.932 39.4747 221.273 42.76C223.278 42.632 225.668 42.2053 228.441 41.48C228.782 41.3947 229.081 41.352 229.337 41.352ZM208.345 54.536C209.71 54.536 210.884 53.9813 211.865 52.872C212.889 51.7627 213.572 50.1627 213.913 48.072C212.59 47.176 211.566 46.0027 210.841 44.552C210.158 43.1013 209.817 41.5653 209.817 39.944C209.817 39.2613 209.881 38.5787 210.009 37.896H209.689C207.982 37.896 206.553 38.728 205.401 40.392C204.292 42.0133 203.737 44.3173 203.737 47.304C203.737 49.6507 204.185 51.4427 205.081 52.68C206.02 53.9173 207.108 54.536 208.345 54.536ZM255.741 46.728C256.296 46.728 256.722 46.984 257.021 47.496C257.362 48.008 257.533 48.712 257.533 49.608C257.533 51.3147 257.128 52.6373 256.317 53.576C254.482 55.8373 252.477 57.6933 250.301 59.144C248.125 60.5947 245.629 61.32 242.813 61.32C234.109 61.32 229.757 55.1973 229.757 42.952C229.757 41.0747 229.821 39.176 229.949 37.256H227.453C226.173 37.256 225.298 37.0213 224.829 36.552C224.402 36.0827 224.189 35.336 224.189 34.312C224.189 31.9227 225.149 30.728 227.069 30.728H230.717C231.442 26.0347 232.552 21.7467 234.045 17.864C235.538 13.9813 237.33 10.888 239.421 8.584C241.554 6.28 243.837 5.128 246.269 5.128C248.061 5.128 249.469 5.91733 250.493 7.496C251.517 9.07467 252.029 11.0587 252.029 13.448C252.029 20.0613 249.256 25.8213 243.709 30.728H250.877C251.56 30.728 252.05 30.8773 252.349 31.176C252.648 31.4747 252.797 32.0293 252.797 32.84C252.797 35.784 250.386 37.256 245.565 37.256H237.757C237.672 39.3893 237.629 41.0533 237.629 42.248C237.629 46.6853 238.141 49.8 239.165 51.592C240.232 53.384 241.896 54.28 244.157 54.28C245.992 54.28 247.613 53.7253 249.021 52.616C250.429 51.5067 252.093 49.8427 254.013 47.624C254.525 47.0267 255.101 46.728 255.741 46.728ZM244.541 11.272C243.901 11.272 243.176 12.0827 242.365 13.704C241.597 15.2827 240.85 17.5013 240.125 20.36C239.442 23.176 238.866 26.312 238.397 29.768C240.914 27.592 242.792 25.16 244.029 22.472C245.309 19.7413 245.949 17.2667 245.949 15.048C245.949 12.5307 245.48 11.272 244.541 11.272ZM280.866 46.728C281.421 46.728 281.847 46.984 282.146 47.496C282.487 48.008 282.658 48.712 282.658 49.608C282.658 51.3147 282.253 52.6373 281.442 53.576C279.863 55.496 277.623 57.2667 274.722 58.888C271.863 60.5093 268.791 61.32 265.506 61.32C261.026 61.32 257.549 60.104 255.074 57.672C252.599 55.24 251.362 51.912 251.362 47.688C251.362 44.744 251.981 42.0133 253.218 39.496C254.455 36.936 256.162 34.9093 258.338 33.416C260.557 31.9227 263.053 31.176 265.826 31.176C268.301 31.176 270.285 31.9227 271.778 33.416C273.271 34.8667 274.018 36.8507 274.018 39.368C274.018 42.312 272.951 44.8507 270.818 46.984C268.727 49.0747 265.165 50.7387 260.13 51.976C261.197 53.9387 263.223 54.92 266.21 54.92C268.13 54.92 270.306 54.2587 272.738 52.936C275.213 51.5707 277.346 49.8 279.138 47.624C279.65 47.0267 280.226 46.728 280.866 46.728ZM264.738 37.448C263.159 37.448 261.815 38.3653 260.706 40.2C259.639 42.0347 259.106 44.2533 259.106 46.856V46.984C261.623 46.3867 263.607 45.4907 265.058 44.296C266.509 43.1013 267.234 41.7147 267.234 40.136C267.234 39.3253 266.999 38.6853 266.53 38.216C266.103 37.704 265.506 37.448 264.738 37.448ZM289.351 62.728C287.132 62.728 285.426 62.216 284.231 61.192C283.079 60.168 282.503 59.016 282.503 57.736C282.503 56.6267 282.908 55.6667 283.719 54.856C284.53 54.0453 285.724 53.64 287.303 53.64C287.858 53.64 288.498 53.704 289.223 53.832C289.991 53.9173 290.567 53.9813 290.951 54.024C290.908 52.9147 290.652 51.8693 290.183 50.888C289.756 49.9067 289.202 48.968 288.519 48.072C287.836 47.1333 287.196 46.3227 286.599 45.64C285.276 48.1573 283.954 50.248 282.631 51.912C281.351 53.576 279.943 55.1547 278.407 56.648C277.639 57.416 276.828 57.8 275.975 57.8C275.292 57.8 274.738 57.5653 274.311 57.096C273.884 56.584 273.671 55.9653 273.671 55.24C273.671 54.3867 273.97 53.5973 274.567 52.872L275.399 51.848C277.746 48.9467 279.516 46.5573 280.711 44.68C281.479 43.4427 282.247 41.9707 283.015 40.264C283.826 38.5573 284.871 36.232 286.151 33.288C286.962 31.4107 288.647 30.472 291.207 30.472C292.402 30.472 293.234 30.5787 293.703 30.792C294.172 31.0053 294.407 31.3467 294.407 31.816C294.407 32.072 294.322 32.4773 294.151 33.032C293.98 33.5867 293.746 34.1413 293.447 34.696C292.679 36.232 292.295 37.5333 292.295 38.6C292.295 39.24 292.508 39.944 292.935 40.712C293.404 41.48 294.108 42.44 295.047 43.592C296.412 45.384 297.436 46.92 298.119 48.2C298.844 49.4373 299.207 50.8027 299.207 52.296C299.207 54.088 298.78 55.7947 297.927 57.416C297.116 58.9947 295.964 60.2747 294.471 61.256C292.978 62.2373 291.271 62.728 289.351 62.728Z" fill="#04A7C8"/>
</svg>
