<svg width="66" height="50" viewBox="0 0 66 50" fill="none" xmlns="http://www.w3.org/2000/svg">
<path d="M55.511 4.15531C51.3558 2.21831 46.857 0.812431 42.1707 0.000143707C42.1296 -0.00117033 42.0888 0.0065404 42.051 0.0227339C42.0132 0.0389274 41.9794 0.0632104 41.952 0.0938698C41.3897 1.12485 40.7336 2.46825 40.2962 3.49923C35.3256 2.74942 30.2707 2.74942 25.3001 3.49923C24.8628 2.43701 24.2067 1.12485 23.6131 0.0938698C23.5818 0.0313862 23.4881 0.000143707 23.3944 0.000143707C18.7081 0.812431 14.2405 2.21831 10.0541 4.15531C10.0229 4.15531 9.99165 4.18655 9.96041 4.21779C1.46263 16.9332 -0.880507 29.305 0.275441 41.5518C0.275441 41.6142 0.306682 41.6767 0.369166 41.708C5.99269 45.8319 11.3975 48.3312 16.7399 49.9871C16.8336 50.0183 16.9273 49.9871 16.9586 49.9246C18.2082 48.2063 19.333 46.3942 20.3014 44.4885C20.3639 44.3635 20.3014 44.2386 20.1765 44.2073C18.3957 43.52 16.7086 42.7077 15.0528 41.7705C14.9279 41.708 14.9279 41.5205 15.0216 41.4268C15.3652 41.1769 15.7089 40.8957 16.0526 40.6458C16.115 40.5833 16.2088 40.5833 16.2713 40.6145C27.0184 45.5195 38.6092 45.5195 49.2314 40.6145C49.2939 40.5833 49.3876 40.5833 49.4501 40.6458C49.7937 40.9269 50.1374 41.1769 50.481 41.458C50.606 41.5518 50.606 41.7392 50.4498 41.8017C48.8252 42.7702 47.1069 43.5512 45.3261 44.2386C45.2012 44.2698 45.1699 44.426 45.2012 44.5197C46.2009 46.4255 47.3256 48.2375 48.5441 49.9558C48.6378 49.9871 48.7315 50.0183 48.8252 49.9871C54.1988 48.3312 59.6037 45.8319 65.2272 41.708C65.2897 41.6767 65.3209 41.6142 65.3209 41.5518C66.6955 27.3992 63.0403 15.1212 55.6359 4.21779C55.6047 4.18655 55.5735 4.15531 55.511 4.15531ZM21.926 34.085C18.7081 34.085 16.0213 31.117 16.0213 27.4617C16.0213 23.8064 18.6456 20.8384 21.926 20.8384C25.2377 20.8384 27.862 23.8377 27.8307 27.4617C27.8307 31.117 25.2064 34.085 21.926 34.085ZM43.7016 34.085C40.4837 34.085 37.7969 31.117 37.7969 27.4617C37.7969 23.8064 40.4212 20.8384 43.7016 20.8384C47.0132 20.8384 49.6375 23.8377 49.6063 27.4617C49.6063 31.117 47.0132 34.085 43.7016 34.085Z" fill="#535353"/>
</svg>
