<svg width="100" height="59" viewBox="0 0 100 59" fill="none" xmlns="http://www.w3.org/2000/svg">
<path d="M100 56.4641C98.5446 57.0146 96.9381 57.0135 95.4835 56.4608C94.0289 55.9082 92.8269 54.8423 92.1042 53.4641L77.7292 33.5851L75.6459 30.8059L58.9667 53.4892C58.2875 54.8093 57.1507 55.8371 55.7688 56.38C54.3869 56.9229 52.8546 56.944 51.4584 56.4392L72.95 27.6059L52.9584 1.55995C54.3959 1.04195 55.9679 1.03515 57.4099 1.54055C58.8518 2.04595 60.0756 3.03285 60.875 4.33495L75.775 24.46L90.7584 4.41835C91.4429 3.12165 92.58 2.12165 93.9535 1.60845C95.3271 1.09525 96.8413 1.10475 98.2084 1.63495L90.45 11.9309L79.9417 25.61C79.6499 25.8704 79.4164 26.1894 79.2565 26.5463C79.0966 26.9032 79.0139 27.2898 79.0139 27.6809C79.0139 28.0719 79.0966 28.4586 79.2565 28.8155C79.4164 29.1723 79.6499 29.4914 79.9417 29.7517L99.9584 56.4684L100 56.4641ZM0.00838332 27.2476L1.75838 18.6017C6.56672 1.50586 26.1667 -5.60665 39.65 4.97665C47.5459 11.1809 49.5167 19.9642 49.1292 29.8642H4.65005C3.92922 47.5434 16.6875 58.2184 33 52.7642C35.6445 51.8123 38.0115 50.2194 39.889 48.128C41.7666 46.0367 43.0961 43.5122 43.7584 40.7809C44.6209 38.0059 46.0417 37.5309 48.65 38.3309C48.2154 41.7158 47.0188 44.958 45.1503 47.8139C43.2819 50.6696 40.7901 53.0645 37.8625 54.8184C33.0268 57.4635 27.4785 58.5119 22.011 57.8137C16.5435 57.1155 11.4367 54.7064 7.42088 50.9309C3.45017 46.4617 1.05037 40.8163 0.58755 34.8559C0.58755 33.8767 0.254217 32.9601 0.0292167 32.0809C0.00893344 30.4712 -0.000788988 28.8615 4.99845e-05 27.2517L0.00838332 27.2476ZM4.70422 26.0559H44.9292C44.6792 13.2392 36.5917 4.14745 25.8042 4.06415C13.7959 3.89745 5.20422 12.7892 4.67505 25.9976L4.70422 26.0559Z" fill="black"/>
</svg>
