<svg width="40" height="40" viewBox="0 0 40 40" fill="none" xmlns="http://www.w3.org/2000/svg">
<path d="M40 20C40 31.0457 31.0457 40 20 40C8.9543 40 0 31.0457 0 20C0 8.9543 8.9543 0 20 0C31.0457 0 40 8.9543 40 20Z" fill="black"/>
<path d="M16.2266 33H21.6133V22.0389H26.4667L27 16.5926H21.6133V13.8421C21.6133 13.4792 21.7552 13.1311 22.0077 12.8745C22.2603 12.6179 22.6028 12.4737 22.96 12.4737H27V7H22.96C21.1742 7 19.4615 7.72086 18.1988 9.00401C16.936 10.2872 16.2266 12.0275 16.2266 13.8421V16.5926H13.5333L13 22.0389H16.2266V33Z" fill="white"/>
</svg>
