<svg width="100" height="100" viewBox="0 0 100 100" fill="none" xmlns="http://www.w3.org/2000/svg">
<path d="M61.0442 37.313L51.5353 46.161L42.7115 28.3636L47.2773 18.1287C48.433 16.0769 50.3186 16.073 51.4743 18.1287L61.0442 37.313Z" fill="#FFA000"/>
<path d="M51.5351 46.1612L16.0009 79.2178L42.7113 28.3638L51.5351 46.1612Z" fill="#F57F17"/>
<path d="M71.4444 23.7887C73.1432 22.1559 74.8995 22.7129 75.347 25.0264L84.5963 78.7747L53.9354 97.1505C52.8624 97.743 50.021 98 50.021 98C50.021 98 47.4275 97.6899 46.439 97.1413L16 79.2156L71.4444 23.7887Z" fill="#FFCA28"/>
<path d="M42.7112 28.3635L16.0007 79.2176L27.898 4.89301C28.3361 2.57767 29.654 2.3547 30.8299 4.39838L42.7112 28.3635Z" fill="#FFA000"/>
</svg>
