<svg width="53" height="50" viewBox="0 0 53 50" fill="none" xmlns="http://www.w3.org/2000/svg">
<path d="M11.1105 5.55803C11.1098 7.03137 10.5238 8.44408 9.48144 9.48537C8.4391 10.5267 7.02581 11.1112 5.55247 11.1105C4.07913 11.1098 2.66642 10.5238 1.62513 9.48144C0.58384 8.43911 -0.000735976 7.02581 6.9541e-07 5.55247C0.000737367 4.07913 0.586727 2.66642 1.62906 1.62513C2.67139 0.58384 4.08468 -0.000735976 5.55802 6.9541e-07C7.03137 0.000737367 8.44407 0.586727 9.48536 1.62906C10.5267 2.67139 11.1112 4.08468 11.1105 5.55803ZM11.2772 15.2242H0.166658V50H11.2772V15.2242ZM28.8317 15.2242H17.7768V50H28.7206V31.751C28.7206 21.5849 41.9699 20.6405 41.9699 31.751V50H52.9415V27.9734C52.9415 10.8355 33.3315 11.4744 28.7206 19.8906L28.8317 15.2242Z" fill="#535353"/>
</svg>
