<svg width="100" height="100" viewBox="0 0 100 100" fill="none" xmlns="http://www.w3.org/2000/svg">
<path d="M29.1667 87.4999C23.4028 87.4999 18.4889 85.468 14.425 81.4041C10.3612 77.3402 8.3306 72.4277 8.33338 66.6666C8.33338 61.5971 9.91254 57.1694 13.0709 53.3833C16.2292 49.5971 20.2056 47.2194 25 46.2499V54.8958C22.5695 55.7291 20.5723 57.2221 19.0084 59.3749C17.4445 61.5277 16.6639 63.9583 16.6667 66.6666C16.6667 70.1388 17.882 73.0902 20.3125 75.5207C22.7431 77.9513 25.6945 79.1666 29.1667 79.1666C32.6389 79.1666 35.5903 77.9513 38.0209 75.5207C40.4514 73.0902 41.6667 70.1388 41.6667 66.6666V62.4999H66.1459C66.7014 61.8749 67.3792 61.3708 68.1792 60.9874C68.9792 60.6041 69.8639 60.4138 70.8334 60.4166C72.5695 60.4166 74.0459 61.0249 75.2625 62.2416C76.4792 63.4583 77.0862 64.9333 77.0834 66.6666C77.0834 68.4027 76.475 69.8791 75.2584 71.0958C74.0417 72.3124 72.5667 72.9194 70.8334 72.9166C69.8612 72.9166 68.975 72.7249 68.175 72.3416C67.375 71.9583 66.7001 71.4555 66.1501 70.8333H49.5834C48.6112 75.6249 46.232 79.6013 42.4459 82.7624C38.6598 85.9235 34.2334 87.5027 29.1667 87.4999ZM70.8334 87.4999C66.9445 87.4999 63.4195 86.5444 60.2584 84.6333C57.0973 82.7221 54.6153 80.2055 52.8125 77.0832H63.9584C64.9306 77.7777 66.007 78.2985 67.1875 78.6457C68.3681 78.993 69.5834 79.1666 70.8334 79.1666C74.3056 79.1666 77.257 77.9513 79.6875 75.5207C82.1181 73.0902 83.3334 70.1388 83.3334 66.6666C83.3334 63.1944 82.1181 60.243 79.6875 57.8124C77.257 55.3819 74.3056 54.1666 70.8334 54.1666C69.4445 54.1666 68.1598 54.3583 66.9792 54.7416C65.7987 55.1249 64.6875 55.6971 63.6459 56.4583L50.9375 35.3124C49.4792 35.0346 48.2639 34.3402 47.2917 33.2291C46.3195 32.118 45.8334 30.7638 45.8334 29.1666C45.8334 27.4305 46.4417 25.9541 47.6584 24.7374C48.875 23.5208 50.35 22.9138 52.0834 22.9166C53.8195 22.9166 55.2959 23.5249 56.5125 24.7416C57.7292 25.9583 58.3362 27.4333 58.3334 29.1666V30.0541C58.3334 30.2958 58.2639 30.5902 58.125 30.9374L67.1875 46.1458C67.7431 46.0069 68.3334 45.9208 68.9584 45.8874C69.5834 45.8541 70.2084 45.836 70.8334 45.8333C76.5973 45.8333 81.5112 47.8652 85.575 51.9291C89.6389 55.993 91.6695 60.9055 91.6667 66.6666C91.6667 72.4305 89.6348 77.3444 85.5709 81.4082C81.507 85.4721 76.5945 87.5027 70.8334 87.4999ZM29.1667 72.9166C27.4306 72.9166 25.9542 72.3083 24.7375 71.0916C23.5209 69.8749 22.9139 68.3999 22.9167 66.6666C22.9167 65.1388 23.4028 63.8194 24.375 62.7083C25.3473 61.5971 26.5278 60.868 27.9167 60.5208L37.7084 44.2708C35.6945 42.3958 34.1139 40.1555 32.9667 37.5499C31.8195 34.9444 31.2473 32.1499 31.25 29.1666C31.25 23.4027 33.282 18.4888 37.3459 14.4249C41.4098 10.361 46.3223 8.33048 52.0834 8.33325C57.8473 8.33325 62.7612 10.3652 66.825 14.4291C70.8889 18.493 72.9195 23.4055 72.9167 29.1666H64.5834C64.5834 25.6944 63.3681 22.743 60.9375 20.3124C58.507 17.8819 55.5556 16.6666 52.0834 16.6666C48.6112 16.6666 45.6598 17.8819 43.2292 20.3124C40.7987 22.743 39.5834 25.6944 39.5834 29.1666C39.5834 32.1527 40.4862 34.7749 42.2917 37.0333C44.0973 39.2916 46.3889 40.7319 49.1667 41.3541L35.1042 64.7916C35.2431 65.1388 35.3306 65.4513 35.3667 65.7291C35.4028 66.0069 35.4195 66.3194 35.4167 66.6666C35.4167 68.4027 34.8084 69.8791 33.5917 71.0958C32.375 72.3124 30.9 72.9194 29.1667 72.9166Z" fill="#729B1B"/>
</svg>
