<svg width="101" height="90" viewBox="0 0 101 90" fill="none" xmlns="http://www.w3.org/2000/svg">
<path d="M50.3125 53.6636C55.2744 53.6636 59.2969 49.6411 59.2969 44.6792C59.2969 39.7172 55.2744 35.6949 50.3125 35.6949C45.3506 35.6949 41.3281 39.7172 41.3281 44.6792C41.3281 49.6411 45.3506 53.6636 50.3125 53.6636Z" fill="#00D8FF"/>
<path d="M50.3125 65.2785C39.5138 65.5398 28.7421 64.0841 18.4 60.966C13.6226 59.4515 9.16665 57.0659 5.25769 53.9295C3.766 52.858 2.52379 51.4765 1.61626 49.8799C0.708733 48.2831 0.157366 46.509 0 44.6791C0 38.7387 6.52625 32.9168 17.4584 29.1074C28.077 25.7319 39.1716 24.0961 50.3125 24.263C61.3048 24.1095 72.2507 25.7158 82.7353 29.0212C87.3363 30.488 91.6411 32.7584 95.45 35.7272C96.9161 36.7486 98.1397 38.0801 99.0341 39.627C99.9283 41.174 100.471 42.8988 100.625 44.6791C100.625 50.8532 93.3297 57.1099 81.5781 60.9984C71.4363 64.0149 60.8919 65.4583 50.3125 65.2785ZM50.3125 28.5612C39.6538 28.4187 29.0405 29.9739 18.8708 33.1684C8.80831 36.6795 4.29813 41.4807 4.29813 44.6684C4.29813 48.0034 9.14606 53.2466 19.7908 56.8872C29.6846 59.8551 39.9863 61.2366 50.3125 60.9804C60.434 61.1614 70.5235 59.7918 80.2304 56.9195C91.2812 53.2574 96.3125 48.007 96.3125 44.6791C96.1311 43.5372 95.715 42.4451 95.0903 41.4721C94.4655 40.4992 93.6458 39.6663 92.6829 39.0262C89.2751 36.3924 85.4296 34.3803 81.3229 33.0822C71.2929 29.9331 60.8242 28.407 50.3125 28.5612Z" fill="#00D8FF"/>
<path d="M29.9 89.4897C28.2235 89.5281 26.5668 89.1213 25.0988 88.3109C19.9525 85.3424 18.17 76.7822 20.3298 65.4079C22.7112 54.5228 26.8374 44.0944 32.5486 34.5268C37.906 24.9283 44.7644 16.2487 52.864 8.81716C56.4333 5.5637 60.5506 2.96838 65.0254 1.15161C66.6438 0.393185 68.4094 0 70.1967 0C71.9841 0 73.7496 0.393185 75.3681 1.15161C80.7192 4.23511 82.491 13.6795 79.9933 25.8012C77.5384 36.0957 73.5194 45.9529 68.0764 55.0291C62.9076 64.5143 56.2651 73.1184 48.3971 80.5197C44.6983 83.9005 40.4057 86.5677 35.7363 88.3864C33.8668 89.0802 31.8936 89.4532 29.9 89.4897ZM36.2717 36.6615C30.8239 45.8231 26.8693 55.7935 24.5561 66.1985C22.5688 76.6743 24.4771 82.9741 27.2514 84.577C30.1264 86.2409 37.1054 84.6632 45.5796 77.2601C53.0906 70.1694 59.4307 61.9335 64.3641 52.8585C69.5783 44.1815 73.4336 34.7573 75.7958 24.9135C78.1461 13.5034 76.1156 6.51716 73.2335 4.85679C72.1532 4.44291 70.9988 4.25765 69.8433 4.31261C68.6878 4.3677 67.5563 4.66187 66.5204 5.17661C62.5373 6.82019 58.8754 9.15354 55.7031 12.0695C47.9645 19.1879 41.4132 27.4972 36.2969 36.683L36.2717 36.6615Z" fill="#00D8FF"/>
<path d="M70.7142 89.5364C65.8447 89.5364 59.6598 86.5895 53.2198 81.0515C44.9783 73.5523 38.0038 64.7696 32.5666 55.0435C26.927 45.6076 22.8335 35.3302 20.4412 24.6009C19.4038 19.8804 19.2116 15.0135 19.8735 10.2259C20.0264 8.44985 20.5673 6.72911 21.4577 5.18477C22.3482 3.64055 23.5665 2.31035 25.0269 1.28823C30.3708 -1.80599 39.4379 1.37448 48.6917 9.58974C56.3845 16.857 62.9172 25.261 68.0621 34.5089C73.6981 43.7245 77.8345 53.7769 80.3167 64.2903C81.3988 69.1839 81.5658 74.2355 80.8091 79.1899C80.629 81.017 80.056 82.7836 79.1293 84.3685C78.2025 85.9533 76.9441 87.319 75.44 88.372C73.9959 89.1724 72.3649 89.5742 70.7142 89.5364ZM36.2861 52.8801C41.5022 62.1751 48.1645 70.5806 56.0229 77.7812C64.1054 84.7351 70.5166 86.2301 73.2729 84.6093C76.1479 82.9382 78.2683 76.1172 76.0833 65.0809C73.6895 55.0433 69.722 45.4479 64.3281 36.6507C59.4184 27.7998 53.183 19.7524 45.8383 12.7882C37.1271 5.05448 30.0617 3.32591 27.1831 4.99341C26.2859 5.72251 25.5497 6.62975 25.0208 7.65773C24.4919 8.68572 24.182 9.81226 24.1104 10.9662C23.5391 15.2359 23.7252 19.5729 24.6604 23.7779C26.9614 34.0386 30.8874 43.8656 36.2897 52.8872L36.2861 52.8801Z" fill="#00D8FF"/>
</svg>
