<svg width="100" height="100" viewBox="0 0 100 100" fill="none" xmlns="http://www.w3.org/2000/svg">
<path fill-rule="evenodd" clip-rule="evenodd" d="M79.355 3.00002C84.5034 3.00002 89.1645 5.08746 92.5385 8.46099C95.9126 11.8345 98 16.4961 98 21.644V78.8453C98 83.9937 95.9131 88.6548 92.539 92.0288C90.8096 93.7627 88.7545 95.1377 86.4919 96.0748C84.2294 97.0118 81.8039 97.4926 79.355 97.4893H21.645C16.4966 97.4893 11.8355 95.4018 8.46148 92.0283C5.08745 88.6548 3 83.9931 3 78.8453V21.644C3 16.4956 5.08694 11.8345 8.46097 8.46047C10.1904 6.72661 12.2455 5.35163 14.5081 4.41454C16.7706 3.47745 19.1961 2.99673 21.645 3.00002H79.355Z" fill="#EC5990"/>
<path fill-rule="evenodd" clip-rule="evenodd" d="M66.7853 25.0155H56.127C55.3455 22.5813 53.0722 20.929 50.5041 20.929C47.936 20.929 45.6627 22.5813 44.8812 25.0155H34.2152C30.0158 25.0155 26.6116 28.4028 26.6116 32.5813V71.9996C26.6116 76.1781 30.0158 79.5654 34.2152 79.5654H66.7853C70.9848 79.5654 74.3889 76.1781 74.3889 71.9996V32.5813C74.3889 28.4028 70.9848 25.0155 66.7853 25.0155ZM45.4129 26.391C45.5733 26.3949 45.7301 26.3429 45.8563 26.2437C45.9824 26.1445 46.07 26.0044 46.104 25.8475C46.5565 23.781 48.3952 22.307 50.5209 22.307C52.6467 22.307 54.4854 23.7805 54.9379 25.8475C54.9719 26.0044 55.0595 26.1445 55.1856 26.2437C55.3118 26.3429 55.4686 26.3949 55.629 26.391H59.3478V30.8963C59.3478 32.0358 58.4192 32.9597 57.2741 32.9597H43.7606C42.6155 32.9597 41.687 32.0358 41.687 30.8963V26.391H45.4129ZM73.0063 71.9996C73.0063 75.4186 70.2212 78.19 66.7853 78.19H34.2152C30.7793 78.19 27.9942 75.4186 27.9942 71.9996V32.5813C27.9942 29.1623 30.7793 26.391 34.2152 26.391H40.3049V30.8963C40.3049 32.7958 41.8524 34.3352 43.7611 34.3352H57.2399C59.1486 34.3352 60.6962 32.7953 60.6962 30.8963V26.391H66.7859C70.2217 26.391 73.0068 29.1623 73.0068 32.5813L73.0063 71.9996ZM65.4303 47.4932H53.2647C53.1742 47.493 53.0845 47.5107 53.0007 47.5451C52.917 47.5796 52.8409 47.6302 52.7767 47.6941C52.7125 47.758 52.6616 47.8339 52.6267 47.9175C52.5919 48.001 52.5739 48.0907 52.5737 48.1812C52.5739 48.2718 52.5919 48.3614 52.6267 48.445C52.6616 48.5285 52.7125 48.6044 52.7767 48.6683C52.8409 48.7322 52.917 48.7828 53.0007 48.8173C53.0845 48.8518 53.1742 48.8694 53.2647 48.8692H65.4303C65.5209 48.8694 65.6106 48.8518 65.6943 48.8173C65.778 48.7828 65.8542 48.7322 65.9183 48.6683C65.9825 48.6044 66.0335 48.5285 66.0683 48.445C66.1031 48.3614 66.1212 48.2718 66.1214 48.1812C66.1212 48.0907 66.1031 48.001 66.0683 47.9175C66.0335 47.8339 65.9825 47.758 65.9183 47.6941C65.8542 47.6302 65.778 47.5796 65.6943 47.5451C65.6106 47.5107 65.5209 47.493 65.4303 47.4932ZM47.459 47.4932H35.2934C35.2028 47.493 35.1131 47.5107 35.0294 47.5451C34.9456 47.5796 34.8695 47.6302 34.8053 47.6941C34.7412 47.758 34.6902 47.8339 34.6554 47.9175C34.6206 48.001 34.6025 48.0907 34.6023 48.1812C34.6025 48.2718 34.6206 48.3614 34.6554 48.445C34.6902 48.5285 34.7412 48.6044 34.8053 48.6683C34.8695 48.7322 34.9456 48.7828 35.0294 48.8173C35.1131 48.8518 35.2028 48.8694 35.2934 48.8692H47.459C47.5495 48.8694 47.6392 48.8518 47.723 48.8173C47.8067 48.7828 47.8828 48.7322 47.947 48.6683C48.0112 48.6044 48.0621 48.5285 48.097 48.445C48.1318 48.3614 48.1498 48.2718 48.15 48.1812C48.1498 48.0907 48.1318 48.001 48.097 47.9175C48.0621 47.8339 48.0112 47.758 47.947 47.6941C47.8828 47.6302 47.8067 47.5796 47.723 47.5451C47.6392 47.5107 47.5495 47.493 47.459 47.4932ZM65.4651 64.1381H53.2652C53.1747 64.1379 53.085 64.1556 53.0012 64.19C52.9175 64.2245 52.8414 64.2751 52.7772 64.339C52.713 64.4029 52.6621 64.4788 52.6272 64.5624C52.5924 64.646 52.5744 64.7356 52.5742 64.8261C52.5744 64.9167 52.5924 65.0063 52.6272 65.0899C52.6621 65.1735 52.713 65.2494 52.7772 65.3132C52.8414 65.3771 52.9175 65.4277 53.0012 65.4622C53.085 65.4967 53.1747 65.5143 53.2652 65.5141H65.4651C65.5556 65.5143 65.6453 65.4967 65.729 65.4622C65.8128 65.4277 65.8889 65.3771 65.9531 65.3132C66.0172 65.2494 66.0682 65.1735 66.103 65.0899C66.1379 65.0063 66.1559 64.9167 66.1561 64.8261C66.1559 64.7356 66.1379 64.646 66.103 64.5624C66.0682 64.4788 66.0172 64.4029 65.9531 64.339C65.8889 64.2751 65.8128 64.2245 65.729 64.19C65.6453 64.1556 65.5556 64.1379 65.4651 64.1381ZM47.4932 64.1381H35.2934C35.2028 64.1379 35.1131 64.1556 35.0294 64.19C34.9456 64.2245 34.8695 64.2751 34.8053 64.339C34.7412 64.4029 34.6902 64.4788 34.6554 64.5624C34.6206 64.646 34.6025 64.7356 34.6023 64.8261C34.6025 64.9167 34.6206 65.0063 34.6554 65.0899C34.6902 65.1735 34.7412 65.2494 34.8053 65.3132C34.8695 65.3771 34.9456 65.4277 35.0294 65.4622C35.1131 65.4967 35.2028 65.5143 35.2934 65.5141H47.4932C47.5837 65.5143 47.6735 65.4967 47.7572 65.4622C47.8409 65.4277 47.917 65.3771 47.9812 65.3132C48.0454 65.2494 48.0963 65.1735 48.1312 65.0899C48.166 65.0063 48.184 64.9167 48.1842 64.8261C48.184 64.7356 48.166 64.646 48.1312 64.5624C48.0963 64.4788 48.0454 64.4029 47.9812 64.339C47.917 64.2751 47.8409 64.2245 47.7572 64.19C47.6735 64.1556 47.5837 64.1379 47.4932 64.1381Z" fill="white"/>
</svg>
