<svg width="100" height="100" viewBox="0 0 100 100" fill="none" xmlns="http://www.w3.org/2000/svg">
<path d="M49.4651 21.0187C32.7522 21.5499 27.7849 33.4888 26.6465 39.9566C28.1298 37.5592 32.8039 32.2988 39.6857 32.2988C47.7059 32.2988 53.8115 41.2503 57.537 44.0444C62.0632 47.4391 71.1582 51.9212 83.098 48.2873C92.6187 45.3897 97.0342 35.2825 98 30.4877C93.3949 36.7486 86.4096 40.5091 77.7685 36.0759C71.8181 33.0231 67.3682 20.4496 49.4651 21.0187Z" fill="#07B6D5"/>
<path d="M25.8186 49.4256C9.10566 49.9568 4.13834 61.8956 3 68.3635C4.48329 65.966 9.15741 60.7056 16.0392 60.7056C24.0594 60.7056 30.165 69.6572 33.8905 72.4513C38.4167 75.8459 47.5116 80.3281 59.4515 76.6942C68.9722 73.7966 73.3877 63.6893 74.3535 58.8945C69.7484 65.1554 62.7631 68.916 54.122 64.4828C48.1716 61.4299 43.7217 48.8565 25.8186 49.4256Z" fill="#07B6D5"/>
</svg>
