<svg width="171" height="100" viewBox="0 0 171 100" fill="none" xmlns="http://www.w3.org/2000/svg">
<path d="M100 34C100 31.2386 102.239 29 105 29H166C168.761 29 171 31.2386 171 34V95C171 97.7614 168.761 100 166 100H105C102.239 100 100 97.7614 100 95V34Z" fill="#F5DE19"/>
<path d="M144.833 86.135C146.38 85.2342 148.355 85.9159 149.772 87.0101C149.974 87.1667 150.186 87.313 150.406 87.4482C151.572 88.166 152.918 88.5396 154.287 88.5259C157.051 88.5259 158.818 87.1439 158.818 85.2295C158.818 82.9473 157.003 82.1308 153.96 80.7996L152.291 80.0845C147.474 78.0331 144.279 75.4644 144.279 70.033C144.279 65.0299 148.082 61.2188 154.049 61.2188C155.98 61.0793 157.91 61.5116 159.597 62.4617C160.509 62.9749 161.328 63.6268 162.027 64.3896C163.044 65.4986 162.57 67.1802 161.302 67.9907L160.629 68.4211C159.432 69.1861 157.806 68.5879 156.625 67.7992C155.86 67.2883 154.958 67.0221 154.039 67.0357C153.637 66.9955 153.232 67.0394 152.849 67.1645C152.465 67.2896 152.112 67.4931 151.812 67.7623C151.512 68.0313 151.271 68.36 151.104 68.7274C150.938 69.0948 150.85 69.4928 150.846 69.896C150.846 71.8967 152.086 72.7081 154.949 73.9531L156.617 74.6683C162.287 77.0999 165.492 79.5774 165.492 85.1483C165.492 91.1554 160.773 94.4467 154.437 94.4467C151.968 94.6041 149.506 94.0435 147.348 92.8327C146.056 92.1073 144.905 91.167 143.943 90.0589C142.859 88.8106 143.405 86.9671 144.833 86.135ZM121.2 86.8204C122.8 85.8502 124.668 86.6371 126.162 87.7638C126.753 88.2095 127.471 88.4777 128.418 88.4777C130.609 88.4777 131.993 87.6206 131.993 84.2862V64.9349C131.993 63.0926 133.487 61.5991 135.329 61.5991C137.171 61.5991 138.665 63.0926 138.665 64.9349V84.3749C138.665 91.2822 134.607 94.4265 128.702 94.4265C126.614 94.5406 124.541 94.0203 122.755 92.9342C121.81 92.3595 120.968 91.6407 120.258 90.8089C119.171 89.5358 119.769 87.6884 121.2 86.8204Z" fill="black"/>
<path d="M95.3143 0H4.68571C2.09786 0 0 2.09786 0 4.68571V95.3143C0 97.9022 2.09786 100 4.68571 100H95.3143C97.9022 100 100 97.9022 100 95.3143V4.68571C100 2.09786 97.9022 0 95.3143 0Z" fill="#3178C6"/>
<path fill-rule="evenodd" clip-rule="evenodd" d="M58.0179 77.7107V88.6679C60.0087 89.6505 62.1304 90.3421 64.3179 90.7215C66.8457 91.1881 69.4117 91.4177 71.9822 91.4072C74.4874 91.4191 76.9871 91.1665 79.4393 90.6536C81.641 90.2087 83.7417 89.3611 85.6358 88.1536C87.3941 87.0185 88.8433 85.465 89.8536 83.6321C91.663 79.8369 91.9017 75.481 90.518 71.5107C89.9339 70.0261 89.0639 68.6706 87.9571 67.5215C86.7693 66.2995 85.4199 65.2457 83.9465 64.3893C82.2502 63.3958 80.4877 62.5199 78.6714 61.7679C77.2429 61.175 75.9571 60.5989 74.8143 60.0393C73.7992 59.5533 72.8278 58.9809 71.9107 58.3286C71.1925 57.825 70.5687 57.1987 70.0679 56.4786C69.6352 55.8247 69.4099 55.0554 69.4215 54.2714C69.4119 53.5498 69.613 52.8411 70 52.2321C70.4205 51.5947 70.9811 51.0621 71.6393 50.675C72.4439 50.2014 73.3193 49.8601 74.2322 49.6643C75.3529 49.4153 76.4985 49.2954 77.6465 49.3072C78.612 49.3105 79.5761 49.3797 80.5322 49.5143C81.5647 49.6538 82.5862 49.8651 83.5894 50.1464C84.6097 50.4293 85.6077 50.7873 86.5751 51.2178C87.5137 51.6363 88.4117 52.1408 89.2571 52.725V42.5C87.4969 41.8341 85.6713 41.3552 83.8107 41.0714C81.564 40.7445 79.2954 40.5905 77.025 40.6107C74.5433 40.5974 72.0688 40.8791 69.6536 41.4501C67.4705 41.9488 65.3947 42.8355 63.525 44.0679C61.7881 45.2249 60.3541 46.7815 59.3429 48.6072C58.2713 50.6345 57.7411 52.9041 57.8037 55.1965C57.7245 58.2278 58.723 61.189 60.6215 63.5536C62.9507 66.1753 65.8878 68.1853 69.1751 69.4072C70.6751 70.0262 72.0738 70.6321 73.3714 71.225C74.5423 71.7459 75.6675 72.3635 76.7358 73.0714C77.5974 73.6319 78.3541 74.339 78.9714 75.1607C79.5144 75.9061 79.8024 76.8065 79.7929 77.7286C79.7978 78.4195 79.6205 79.0995 79.2786 79.7C78.8989 80.3453 78.365 80.8864 77.725 81.275C76.9242 81.7632 76.0481 82.1157 75.1322 82.3178C73.9391 82.5846 72.7189 82.7105 71.4965 82.6929C69.0975 82.6885 66.7178 82.2655 64.4643 81.4429C62.1101 80.5934 59.9269 79.3294 58.0179 77.7107ZM39.6107 50.4321H53.8965V41.4072H14.0643V50.4321H28.2857V90.625H39.6107V50.4321Z" fill="white"/>
</svg>
