<svg width="40" height="40" viewBox="0 0 40 40" fill="none" xmlns="http://www.w3.org/2000/svg">
<path d="M40 20C40 31.0457 31.0457 40 20 40C8.9543 40 0 31.0457 0 20C0 8.9543 8.9543 0 20 0C31.0457 0 40 8.9543 40 20Z" fill="black"/>
<path d="M27.6482 11.3466C26.5886 10.2816 25.3265 9.43718 23.9355 8.86262C22.5444 8.28807 21.0523 7.99485 19.5462 8.00007C13.2357 8.00007 8.09246 13.1176 8.09246 19.3965C8.09246 21.409 8.62412 23.364 9.61809 25.089L8 31L14.0678 29.413C15.7437 30.3215 17.6276 30.8045 19.5462 30.8045C25.8568 30.8045 31 25.687 31 19.408C31 16.3605 29.8095 13.4971 27.6482 11.3466ZM19.5462 28.8725C17.8357 28.8725 16.1598 28.4125 14.692 27.55L14.3452 27.343L10.7392 28.286L11.6985 24.79L11.4673 24.4335C10.517 22.9235 10.0124 21.1782 10.0111 19.3965C10.0111 14.1755 14.2874 9.92056 19.5347 9.92056C22.0774 9.92056 24.4698 10.9096 26.2613 12.7036C27.1483 13.5821 27.8513 14.6271 28.3294 15.778C28.8076 16.9289 29.0514 18.1627 29.0467 19.408C29.0698 24.629 24.7935 28.8725 19.5462 28.8725ZM24.7703 21.7885C24.4814 21.6505 23.0714 20.9605 22.8171 20.857C22.5513 20.765 22.3663 20.719 22.1698 20.995C21.9734 21.2825 21.4301 21.9265 21.2683 22.1105C21.1065 22.306 20.9332 22.329 20.6442 22.1795C20.3553 22.0415 19.4307 21.731 18.3442 20.765C17.4889 20.006 16.9226 19.0745 16.7492 18.787C16.5874 18.4995 16.7261 18.35 16.8764 18.2005C17.0035 18.074 17.1653 17.867 17.304 17.706C17.4427 17.545 17.5005 17.4185 17.593 17.2345C17.6854 17.039 17.6392 16.878 17.5698 16.74C17.5005 16.602 16.9226 15.199 16.6915 14.624C16.4603 14.0721 16.2176 14.1411 16.0442 14.1296H15.4894C15.293 14.1296 14.9925 14.1986 14.7266 14.486C14.4724 14.7735 13.7327 15.4635 13.7327 16.8665C13.7327 18.2695 14.7613 19.6265 14.9 19.8105C15.0387 20.006 16.9226 22.881 19.7889 24.1115C20.4709 24.4105 21.0025 24.583 21.4186 24.7095C22.1005 24.928 22.7246 24.8935 23.2216 24.8245C23.7764 24.744 24.9206 24.1345 25.1518 23.4675C25.3945 22.8005 25.3945 22.237 25.3136 22.1105C25.2327 21.984 25.0593 21.9265 24.7703 21.7885Z" fill="white"/>
</svg>
